<svg width="720" height="240" viewBox="0 0 720 240" fill="none" xmlns="http://www.w3.org/2000/svg">
  <defs>
    <filter id="glow" x="-20%" y="-20%" width="140%" height="140%">
      <feGaussianBlur stdDeviation="6" result="blur"/>
      <feColorMatrix in="blur" type="matrix" values="0 0 0 0 0.623529 0 0 0 0 0.94902 0 0 0 0 0.0745098 0 0 0 0.35 0"/>
      <feBlend in="SourceGraphic" mode="normal"/>
    </filter>
    <linearGradient id="shieldBlue" x1="64" y1="12" x2="64" y2="140" gradientUnits="userSpaceOnUse">
      <stop stop-color="#2EA9F2"/>
      <stop offset="1" stop-color="#1C7EEA"/>
    </linearGradient>
    <linearGradient id="wordBlue" x1="164" y1="160" x2="483" y2="160" gradientUnits="userSpaceOnUse">
      <stop stop-color="#2EA9F2"/>
      <stop offset="1" stop-color="#22307E"/>
    </linearGradient>
  </defs>

  <g transform="translate(16 12)">
    <path d="M64 10L118 28V73C118 107.5 95.8 137.9 64 156C32.2 137.9 10 107.5 10 73V28L64 10Z" stroke="url(#shieldBlue)" stroke-width="8" fill="none" stroke-linejoin="round"/>
    <path d="M30 35L20 61V88L38 113M98 35L108 61V88L90 113" stroke="#A1EA10" stroke-width="3.5" stroke-linecap="round"/>
    <path d="M20 49L34 35L46 48M108 49L94 35L82 48M31 131L49 146M97 131L79 146" stroke="#2EA9F2" stroke-width="5" stroke-linecap="round" stroke-linejoin="round"/>
    <circle cx="64" cy="73" r="38" stroke="#A1EA10" stroke-width="3"/>
    <path d="M18 73C28 55 43.5 44 64 44C84.5 44 100 55 110 73C100 91 84.5 102 64 102C43.5 102 28 91 18 73Z" fill="white" stroke="#22307E" stroke-width="5" stroke-linejoin="round"/>
    <path d="M28 73C36.3 59.3 47.9 51 64 51C80.1 51 91.7 59.3 100 73C91.7 86.7 80.1 95 64 95C47.9 95 36.3 86.7 28 73Z" fill="none" stroke="#22307E" stroke-width="5" stroke-linejoin="round"/>
    <circle cx="64" cy="73" r="23" stroke="#22307E" stroke-width="5"/>
    <circle cx="64" cy="73" r="14" stroke="#22307E" stroke-width="5"/>
    <path d="M64 54C73.7 54 81.5 61.8 81.5 71.5" stroke="#22307E" stroke-width="5" stroke-linecap="round"/>
    <circle cx="82.5" cy="58.5" r="5.5" fill="#F5F8FF"/>
    <circle cx="64" cy="73" r="3.8" fill="#F5F8FF"/>
    <circle cx="18" cy="25" r="4" fill="#A1EA10"/>
    <circle cx="110" cy="25" r="4" fill="#A1EA10"/>
    <circle cx="10" cy="65" r="4" fill="#A1EA10"/>
    <circle cx="118" cy="65" r="4" fill="#A1EA10"/>
    <circle cx="52" cy="34" r="3.8" stroke="#A1EA10" stroke-width="2.5"/>
    <circle cx="76" cy="34" r="3.8" stroke="#A1EA10" stroke-width="2.5"/>
    <circle cx="52" cy="142" r="3.8" stroke="#A1EA10" stroke-width="2.5"/>
    <circle cx="76" cy="142" r="3.8" stroke="#A1EA10" stroke-width="2.5"/>
  </g>

  <g transform="translate(164 24)">
    <text x="0" y="128" font-family="'Space Grotesk', 'Noto Sans KR', sans-serif" font-size="58" font-weight="800" fill="url(#wordBlue)">THREATWATCH AI</text>
    <ellipse cx="154" cy="156" rx="132" ry="12" fill="#A1EA10" opacity="0.35" filter="url(#glow)"/>
  </g>
</svg>
